# xmcd
#
# Track frame offsets: 
#        150
#        12542
#        25984
#        42286
#        55368
#        67833
#        80260
#        94307
#        112261
#        123681
#        133888
#        144669
#
# Disc length: 2086 seconds
#
# Revision: 0
# Processed by: cddbd v1.5.2PL0 Copyright (c) Steve Scherf et al.
# Submitted via: ExactAudioCopy v0.99pb5
#
DISCID=b208240c
DTITLE=Lulu - To Sir With Love
DYEAR=1900
DGENRE=
TTITLE0=To Sir With Love
TTITLE1=Will you Still Love Me Tommorrow?
TTITLE2=You Send Me
TTITLE3=Shout
TTITLE4=The Boat That I Row
TTITLE5=Leave A Little Love
TTITLE6=Let's Pretent
TTITLE7=I Won't Last A Day Without you
TTITLE8=Boy
TTITLE9=Me The Peacefull Heart
TTITLE10=Boom Bang A Bang
TTITLE11=I'm A Tiger
EXTD=
EXTT0=
EXTT1=
EXTT2=
EXTT3=
EXTT4=
EXTT5=
EXTT6=
EXTT7=
EXTT8=
EXTT9=
EXTT10=
EXTT11=
PLAYORDER=
